<?xml version="1.0" encoding="UTF-8"?>
<svg width="144px" height="144px" viewBox="0 0 144 144" version="1.1" xmlns="http://www.w3.org/2000/svg" xmlns:xlink="http://www.w3.org/1999/xlink">
    <!-- Generator: Sketch 47.1 (45422) - http://www.bohemiancoding.com/sketch -->
    <title>heads</title>
    <desc>Created with Sketch.</desc>
    <defs>
        <circle id="path-1" cx="65" cy="65" r="65"></circle>
        <filter x="-8.8%" y="-7.3%" width="117.7%" height="117.7%" filterUnits="objectBoundingBox" id="filter-2">
            <feOffset dx="0" dy="2" in="SourceAlpha" result="shadowOffsetOuter1"></feOffset>
            <feGaussianBlur stdDeviation="3.5" in="shadowOffsetOuter1" result="shadowBlurOuter1"></feGaussianBlur>
            <feColorMatrix values="0 0 0 0 0.329411765   0 0 0 0 0.329411765   0 0 0 0 0.329411765  0 0 0 0.25 0" type="matrix" in="shadowBlurOuter1"></feColorMatrix>
        </filter>
    </defs>
    <g id="Page-1" stroke="none" stroke-width="1" fill="none" fill-rule="evenodd">
        <g id="Coin-Flipper" transform="translate(-13.000000, -104.000000)">
            <g id="Group-5" transform="translate(20.000000, 109.000000)">
                <g id="heads">
                    <g id="Group-3">
                        <g id="Group">
                            <g id="Oval">
                                <use fill="black" fill-opacity="1" filter="url(#filter-2)" xlink:href="#path-1"></use>
                                <use fill="#FFFFFF" fill-rule="evenodd" xlink:href="#path-1"></use>
                            </g>
                            <g id="Group-2" transform="translate(43.000000, 43.000000)" fill-rule="nonzero">
                                <path d="M23.2890625,8.7429375 L20.7109375,8.7429375 L20.7109375,6.1875 C20.7109375,2.77569531 23.4866328,0 26.8984375,0 L26.8984375,2.578125 C24.9082109,2.578125 23.2890625,4.19727344 23.2890625,6.1875 L23.2890625,8.7429375 Z" id="Shape" fill="#1C1207"></path>
                                <path d="M28.53125,6.1875 C27.3306172,6.1875 26.1320469,6.3270625 24.9687969,6.60232031 L24.9687969,43.5851797 C26.1320469,43.8604375 27.3306172,44 28.53125,44 C37.0607188,44 44,37.0607187 44,28.53125 L44,21.65625 C44,13.1267813 37.0607188,6.1875 28.53125,6.1875 Z" id="Shape" fill="#FE7F1E"></path>
                                <g id="Group" transform="translate(0.000000, 6.187500)" fill="#FFA533">
                                    <path d="M15.46875,0 C16.6693828,0 17.8679531,0.1395625 19.0312031,0.414820312 L19.0312031,37.3976797 C17.8679531,37.6729375 16.6693828,37.8125 15.46875,37.8125 C6.93928125,37.8125 0,30.8732187 0,22.34375 L0,15.46875 C0,6.93928125 6.93928125,0 15.46875,0 Z" id="Shape"></path>
                                    <path d="M37.46875,15.46875 L37.46875,22.34375 C37.46875,30.8730469 30.5292969,37.8125 22,37.8125 L14.265625,18.90625 L22,0 C30.5292969,0 37.46875,6.93945312 37.46875,15.46875 Z" id="Shape"></path>
                                </g>
                                <path d="M22,6.1875 L22,44 C13.4707031,44 6.53125,37.0605469 6.53125,28.53125 L6.53125,21.65625 C6.53125,13.1269531 13.4707031,6.1875 22,6.1875 Z" id="Shape" fill="#FFCB47"></path>
                                <path d="M15.5546875,24.2117734 C13.4223203,24.2117734 11.6875,22.4769531 11.6875,20.3445859 C11.6875,18.2122188 13.4223203,16.4773984 15.5546875,16.4773984 C17.6870547,16.4773984 19.421875,18.2122188 19.421875,20.3445859 C19.421875,22.4769531 17.6870547,24.2117734 15.5546875,24.2117734 Z" id="Shape" fill="#AA4A0F"></path>
                                <g id="Group" transform="translate(18.992188, 16.414062)" fill="#7F2F08">
                                    <path d="M9.453125,7.79771094 C7.32075781,7.79771094 5.5859375,6.06289063 5.5859375,3.93052344 C5.5859375,1.79815625 7.32075781,0.0633359375 9.453125,0.0633359375 C11.5854922,0.0633359375 13.3203125,1.79815625 13.3203125,3.93052344 C13.3203125,6.06289063 11.5854922,7.79771094 9.453125,7.79771094 Z" id="Shape"></path>
                                    <path d="M8.59375,11.020625 L8.59375,13.59875 L6.015625,13.59875 L6.015625,11.020625 L3.0078125,11.020625 L0.061359375,16.176875 L3.0078125,21.333125 C8.69438281,21.333125 13.3203125,16.70625 13.3203125,11.020625 L8.59375,11.020625 Z" id="Shape"></path>
                                </g>
                                <path d="M18.9921875,27.4346875 L18.9921875,30.0128125 L16.4140625,30.0128125 L16.4140625,27.4346875 L11.6875,27.4346875 C11.6875,33.1203125 16.3134297,37.7471875 22,37.7471875 L22,27.4346875 L18.9921875,27.4346875 Z" id="Shape" fill="#AA4A0F"></path>
                            </g>
                            <circle id="Oval-2-Copy" stroke="#FE7F1E" stroke-width="0.866666667" cx="65.4333333" cy="65.4333333" r="58.0666667"></circle>
                        </g>
                    </g>
                </g>
            </g>
        </g>
    </g>
</svg>